#!OML:ASF F:\VICON\USERDATA\Patient Classification 1\PLAYGROUND\JustinFriday\JustinFriday.ASF
:FULLY-SPECIFIED
:DEGREES
1815
root -21.0743 17.5388 7.19542 175.338 -32.9149 -169.69
lowerback 9.25845 1.66602 5.65873
upperback 3.64262 2.41703 3.41727
thorax -1.29879 1.07021 0.122903
lowerneck 0.719411 -9.62 -12.7238
upperneck 22.2366 -16.9011 10.9571
head 8.80716 -8.79444 4.26393
rclavicle 3.8266e-015 2.62396e-014
rhumerus -25.1417 -31.8702 -37.0617
rradius 109.216
rwrist 16.4757
rhand -42.8186 -24.7382
rfingers 7.12502
rthumb -15.6837 -54.1226
lclavicle 3.8266e-015 2.62396e-014
lhumerus -42.638 15.9672 76.2283
lradius 23.4414
lwrist -5.36913
lhand -8.76466 -13.0286
lfingers 7.12502
lthumb 17.173 16.2325
rfemur -0.701484 1.64336 39.2418
rtibia 17.6945
rfoot -11.1097 -0.619456
rtoes 33.0488
lfemur -30.6072 -2.97482 -1.51836
ltibia 65.3407
lfoot -7.3803 -3.08951
ltoes 2.8256
1816
root -21.1604 17.549 7.12165 175.638 -32.0691 -170.047
lowerback 9.60154 1.66871 5.54706
upperback 3.35312 2.47867 3.19649
thorax -1.78342 1.09866 -0.0653497
lowerneck 1.31422 -9.44952 -12.3704
upperneck 22.1471 -16.7757 10.8807
head 8.6117 -8.76403 4.23874
rclavicle 9.51682e-015 1.96797e-014
rhumerus -25.4192 -31.3367 -37.4036
rradius 109.714
rwrist 15.4248
rhand -42.3996 -25.1055
rfingers 7.12502
rthumb -15.2801 -54.5211
lclavicle 9.51682e-015 1.96797e-014
lhumerus -42.9717 15.4993 76.1817
lradius 23.0807
lwrist -5.47631
lhand -8.63333 -12.6261
lfingers 7.12502
lthumb 17.2994 16.624
rfemur -0.135049 2.27837 38.8722
rtibia 17.4341
rfoot -11.1631 -0.357624
rtoes 32.7051
lfemur -30.9557 -3.50484 -1.72176
ltibia 63.9245
lfoot -7.42938 -2.45063
ltoes -1.89933
1817
root -21.2456 17.543 7.03503 175.521 -31.3306 -169.909
lowerback 9.81455 1.35787 5.51414
upperback 3.59571 2.03018 3.48556
thorax -1.67619 0.860962 0.298531
lowerneck 0.141232 -9.13662 -12.8327
upperneck 22.6471 -16.1131 10.5132
head 8.9154 -8.45427 4.19023
rclavicle -1.28216e-014 1.39149e-015
rhumerus -23.8606 -30.7832 -38.3732
rradius 109.516
rwrist 15.4453
rhand -43.6056 -24.9205
rfingers 7.12502
rthumb -16.4415 -54.2438
lclavicle -1.28216e-014 1.39149e-015
lhumerus -42.813 17.459 75.8711
lradius 22.5218
lwrist -6.95534
lhand -8.22769 -12.5991
lfingers 7.12502
lthumb 17.6897 16.6163
rfemur 0.64662 2.71016 39.0541
rtibia 17.2478
rfoot -11.3916 -0.403132
rtoes 31.3766
lfemur -31.1228 -3.95199 -1.41499
ltibia 62.431
lfoot -7.72684 -2.15952
ltoes 4.13795
1818
root -21.3281 17.531 6.94553 175.525 -30.6627 -170.035
lowerback 9.77208 1.27225 5.1632
upperback 3.73866 1.86203 3.52135
thorax -1.52398 0.77525 0.551467
lowerneck 0.0405484 -8.92898 -12.6498
upperneck 22.7577 -15.8409 10.4381
head 8.91155 -8.32471 4.16395
rclavicle -3.50358e-014 5.9039e-014
rhumerus -23.5631 -30.5626 -38.7428
rradius 110.117
rwrist 13.7476
rhand -42.6544 -24.051
rfingers 7.12502
rthumb -15.5256 -53.4478
lclavicle -3.50358e-014 5.9039e-014
lhumerus -42.7042 17.6171 75.9068
lradius 22.3743
lwrist -7.3042
lhand -7.93074 -12.5198
lfingers 7.12502
lthumb 17.9755 16.6695
rfemur 1.31819 3.45114 39.0575
rtibia 17.2987
rfoot -11.6921 -0.720751
rtoes 30.5293
lfemur -31.2767 -4.35589 -1.41152
ltibia 60.8997
lfoot -8.37967 -1.99328
ltoes 8.70691
1819
root -21.4045 17.5261 6.84912 175.42 -30.1235 -170.111
lowerback 9.86125 1.14749 4.78586
upperback 3.79239 1.66234 3.50959
thorax -1.53522 0.672776 0.769713
lowerneck 0.4476 -8.75321 -12.1173
upperneck 22.5215 -15.6037 10.2044
head 8.65897 -8.21839 4.05726
rclavicle 7.40473e-015 -2.92213e-014
rhumerus -23.5841 -30.1716 -39.1734
rradius 109.788
rwrist 14.8222
rhand -44.3167 -24.8261
rfingers 7.12502
rthumb -17.126 -54.0913
lclavicle 7.40473e-015 -2.92213e-014
lhumerus -42.7518 16.3546 76.4251
lradius 22.6488
lwrist -6.28164
lhand -7.50571 -12.065
lfingers 7.12502
lthumb 18.3844 17.0862
rfemur 2.06496 4.33514 39.1398
rtibia 17.2823
rfoot -11.7078 -0.667099
rtoes 32.7004
lfemur -31.3098 -4.79972 -1.3837
ltibia 59.2716
lfoot -8.64716 -1.93747
ltoes 4.16827
